<?xml version="1.0" encoding="utf-8"?>
<!-- Generator: Adobe Illustrator 27.4.1, SVG Export Plug-In . SVG Version: 6.00 Build 0)  -->
<svg version="1.1" id="图层_1" xmlns="http://www.w3.org/2000/svg" xmlns:xlink="http://www.w3.org/1999/xlink" x="0px" y="0px"
	 viewBox="0 0 24 24" style="enable-background:new 0 0 24 24;" xml:space="preserve">
<style type="text/css">
	.st0{fill:#FFFFFF;}
</style>
<path class="st0" d="M9.1,23.7v-8H6.6V12h2.5v-1.6c0-4.1,1.8-6,5.9-6c0.4,0,1,0,1.5,0.1c0.4,0,0.8,0.1,1.1,0.2v3.3
	c-0.2,0-0.4,0-0.7,0c-0.2,0-0.5,0-0.7,0c-0.7,0-1.3,0.1-1.7,0.3C14.2,8.5,14,8.7,13.8,9c-0.3,0.4-0.4,1-0.4,1.8V12h3.9L17,14.1
	l-0.3,1.6h-3.2V24C19.4,23.2,24,18.2,24,12c0-6.6-5.4-12-12-12S0,5.4,0,12C0,17.7,3.9,22.4,9.1,23.7z"/>
</svg>
